<svg xmlns="http://www.w3.org/2000/svg" xmlns:xlink="http://www.w3.org/1999/xlink" width="200" zoomAndPan="magnify" viewBox="0 0 150 44.999999" height="60" preserveAspectRatio="xMidYMid meet" version="1.0"><defs><g/><clipPath id="5adaa7abc7"><path d="M 4.5 5.6875 L 44.25 5.6875 L 44.25 39.4375 L 4.5 39.4375 Z M 4.5 5.6875 " clip-rule="nonzero"/></clipPath><clipPath id="4181dc4d93"><path d="M 42.140625 22.496094 L 43.023438 21.566406 C 44.597656 19.898438 44.597656 17.1875 43.023438 15.523438 L 34.957031 6.992188 C 34.175781 6.167969 33.132812 5.710938 32.019531 5.710938 C 30.90625 5.710938 29.859375 6.167969 29.078125 6.996094 L 28.28125 7.839844 L 27.484375 6.996094 C 26.703125 6.167969 25.660156 5.710938 24.546875 5.710938 C 23.429688 5.710938 22.386719 6.167969 21.605469 6.992188 L 20.808594 7.839844 L 20.007812 6.992188 C 19.226562 6.167969 18.183594 5.710938 17.070312 5.710938 C 15.957031 5.710938 14.910156 6.167969 14.128906 6.996094 L 6.066406 15.523438 C 4.492188 17.1875 4.492188 19.898438 6.066406 21.566406 L 6.949219 22.496094 L 6.066406 23.425781 C 4.492188 25.09375 4.492188 27.804688 6.066406 29.46875 L 14.128906 37.996094 C 14.910156 38.824219 15.957031 39.277344 17.070312 39.277344 C 18.183594 39.277344 19.226562 38.824219 20.007812 37.996094 L 20.808594 37.152344 L 21.605469 37.996094 C 22.386719 38.824219 23.429688 39.277344 24.542969 39.277344 C 25.660156 39.277344 26.703125 38.824219 27.484375 37.996094 L 28.28125 37.152344 L 29.078125 37.996094 C 29.859375 38.824219 30.90625 39.277344 32.019531 39.277344 C 33.132812 39.277344 34.175781 38.824219 34.957031 37.996094 L 43.023438 29.46875 C 44.597656 27.804688 44.597656 25.09375 43.023438 23.425781 Z M 21.605469 33.1875 L 20.808594 34.03125 L 9.898438 22.496094 L 15.355469 16.726562 L 20.808594 10.960938 L 21.605469 11.804688 C 21.71875 11.921875 21.835938 12.03125 21.957031 12.132812 C 22.15625 12.300781 22.363281 12.449219 22.585938 12.574219 C 22.824219 12.707031 23.074219 12.816406 23.332031 12.898438 C 23.335938 12.898438 23.339844 12.902344 23.339844 12.902344 C 23.597656 12.980469 23.859375 13.039062 24.128906 13.066406 C 24.199219 13.074219 24.269531 13.074219 24.339844 13.074219 C 24.40625 13.078125 24.476562 13.085938 24.542969 13.085938 C 24.824219 13.085938 25.097656 13.058594 25.363281 13.003906 C 26.164062 12.835938 26.898438 12.425781 27.484375 11.804688 L 28.21875 11.023438 L 28.28125 10.960938 L 39.1875 22.496094 L 28.28125 34.03125 L 27.484375 33.1875 C 26.703125 32.359375 25.65625 31.90625 24.542969 31.90625 C 23.429688 31.90625 22.386719 32.359375 21.605469 33.1875 Z M 30.636719 8.46875 C 31.011719 8.074219 31.5 7.859375 32.019531 7.859375 C 32.535156 7.859375 33.027344 8.074219 33.398438 8.46875 L 41.464844 16.996094 C 42.269531 17.847656 42.269531 19.238281 41.464844 20.089844 L 40.667969 20.933594 L 29.757812 9.398438 Z M 23.164062 8.46875 C 23.535156 8.074219 24.027344 7.859375 24.546875 7.859375 C 25.0625 7.859375 25.554688 8.074219 25.925781 8.46875 L 26.804688 9.398438 L 25.925781 10.332031 C 25.691406 10.578125 25.414062 10.753906 25.109375 10.851562 C 24.929688 10.910156 24.738281 10.941406 24.542969 10.941406 C 24.027344 10.941406 23.535156 10.722656 23.164062 10.332031 L 22.285156 9.398438 Z M 7.625 20.089844 C 6.820312 19.238281 6.820312 17.847656 7.625 16.996094 L 15.6875 8.46875 C 16.0625 8.074219 16.550781 7.859375 17.070312 7.859375 C 17.585938 7.859375 18.078125 8.074219 18.449219 8.46875 L 19.332031 9.398438 L 13.878906 15.167969 L 8.425781 20.933594 Z M 17.070312 37.132812 C 16.550781 37.132812 16.0625 36.917969 15.6875 36.523438 L 7.625 27.996094 C 6.820312 27.140625 6.820312 25.753906 7.625 24.898438 L 8.421875 24.054688 L 19.332031 35.589844 L 18.449219 36.523438 C 18.078125 36.917969 17.585938 37.132812 17.070312 37.132812 Z M 24.546875 37.132812 C 24.027344 37.132812 23.535156 36.917969 23.164062 36.523438 L 22.285156 35.589844 L 23.164062 34.660156 C 23.535156 34.265625 24.027344 34.050781 24.542969 34.050781 C 25.0625 34.050781 25.550781 34.265625 25.925781 34.660156 L 26.804688 35.59375 L 25.925781 36.523438 C 25.554688 36.917969 25.0625 37.132812 24.546875 37.132812 Z M 41.464844 27.996094 L 33.398438 36.523438 C 33.027344 36.917969 32.535156 37.132812 32.019531 37.132812 C 31.5 37.132812 31.011719 36.917969 30.636719 36.523438 L 29.757812 35.59375 L 40.664062 24.054688 L 41.464844 24.898438 C 42.269531 25.753906 42.269531 27.140625 41.464844 27.996094 Z M 41.464844 27.996094 " clip-rule="nonzero"/></clipPath><clipPath id="04369b4b8d"><rect x="0" width="76" y="0" height="31"/></clipPath><clipPath id="3e27dffdcd"><rect x="0" width="23" y="0" height="31"/></clipPath></defs><rect x="-15" width="180" fill="#ffffff" y="-4.5" height="53.999999" fill-opacity="1"/><rect x="-15" width="180" fill="#ffffff" y="-4.5" height="53.999999" fill-opacity="1"/><g clip-path="url(#5adaa7abc7)"><g clip-path="url(#4181dc4d93)"><path fill="#000000" d="M 4.5 5.710938 L 4.5 39.277344 L 44.25 39.277344 L 44.25 5.710938 Z M 4.5 5.710938 " fill-opacity="1" fill-rule="nonzero"/></g></g><g transform="matrix(1, 0, 0, 1, 47, 7)"><g clip-path="url(#04369b4b8d)"><g fill="#000000" fill-opacity="1"><g transform="translate(0.754355, 22.199629)"><g><path d="M 6.78125 0.21875 C 5.71875 0.21875 4.773438 0.0859375 3.953125 -0.171875 C 3.128906 -0.429688 2.441406 -0.773438 1.890625 -1.203125 C 1.335938 -1.628906 0.914062 -2.097656 0.625 -2.609375 L 2.28125 -4.640625 L 2.546875 -4.640625 C 3.003906 -3.953125 3.585938 -3.40625 4.296875 -3 C 5.003906 -2.59375 5.832031 -2.390625 6.78125 -2.390625 C 7.59375 -2.390625 8.203125 -2.5625 8.609375 -2.90625 C 9.023438 -3.25 9.234375 -3.722656 9.234375 -4.328125 C 9.234375 -4.691406 9.164062 -4.992188 9.03125 -5.234375 C 8.894531 -5.472656 8.671875 -5.679688 8.359375 -5.859375 C 8.054688 -6.035156 7.644531 -6.1875 7.125 -6.3125 L 5.15625 -6.765625 C 3.78125 -7.078125 2.753906 -7.597656 2.078125 -8.328125 C 1.410156 -9.054688 1.078125 -10.003906 1.078125 -11.171875 C 1.078125 -12.035156 1.289062 -12.796875 1.71875 -13.453125 C 2.15625 -14.109375 2.785156 -14.613281 3.609375 -14.96875 C 4.441406 -15.332031 5.429688 -15.515625 6.578125 -15.515625 C 7.765625 -15.515625 8.773438 -15.359375 9.609375 -15.046875 C 10.453125 -14.742188 11.164062 -14.269531 11.75 -13.625 L 10.25 -11.578125 L 9.984375 -11.578125 C 9.554688 -12.023438 9.0625 -12.363281 8.5 -12.59375 C 7.9375 -12.820312 7.296875 -12.9375 6.578125 -12.9375 C 5.753906 -12.9375 5.125 -12.789062 4.6875 -12.5 C 4.257812 -12.207031 4.046875 -11.800781 4.046875 -11.28125 C 4.046875 -10.800781 4.195312 -10.414062 4.5 -10.125 C 4.800781 -9.84375 5.328125 -9.625 6.078125 -9.46875 L 8.078125 -9.046875 C 9.566406 -8.734375 10.644531 -8.203125 11.3125 -7.453125 C 11.976562 -6.703125 12.3125 -5.722656 12.3125 -4.515625 C 12.3125 -3.554688 12.101562 -2.722656 11.6875 -2.015625 C 11.28125 -1.304688 10.660156 -0.753906 9.828125 -0.359375 C 9.003906 0.0234375 7.988281 0.21875 6.78125 0.21875 Z M 6.78125 0.21875 "/></g></g><g transform="translate(13.902379, 22.199629)"><g><path d="M 1.671875 4.671875 L 1.671875 -11.546875 L 4.5625 -11.546875 L 4.5625 -10.03125 L 4.78125 -10 C 5.125 -10.582031 5.582031 -11.019531 6.15625 -11.3125 C 6.726562 -11.613281 7.398438 -11.765625 8.171875 -11.765625 C 9.097656 -11.765625 9.90625 -11.546875 10.59375 -11.109375 C 11.289062 -10.671875 11.832031 -10 12.21875 -9.09375 C 12.601562 -8.195312 12.796875 -7.085938 12.796875 -5.765625 C 12.796875 -4.453125 12.59375 -3.347656 12.1875 -2.453125 C 11.78125 -1.554688 11.210938 -0.882812 10.484375 -0.4375 C 9.765625 0 8.925781 0.21875 7.96875 0.21875 C 7.25 0.21875 6.628906 0.0976562 6.109375 -0.140625 C 5.585938 -0.378906 5.144531 -0.753906 4.78125 -1.265625 L 4.5625 -1.21875 L 4.5625 4.671875 Z M 7.171875 -2.234375 C 8.035156 -2.234375 8.691406 -2.515625 9.140625 -3.078125 C 9.585938 -3.648438 9.8125 -4.546875 9.8125 -5.765625 C 9.8125 -6.984375 9.585938 -7.878906 9.140625 -8.453125 C 8.691406 -9.023438 8.035156 -9.3125 7.171875 -9.3125 C 6.359375 -9.3125 5.710938 -9.015625 5.234375 -8.421875 C 4.765625 -7.835938 4.53125 -6.953125 4.53125 -5.765625 C 4.53125 -4.585938 4.765625 -3.703125 5.234375 -3.109375 C 5.710938 -2.523438 6.359375 -2.234375 7.171875 -2.234375 Z M 7.171875 -2.234375 "/></g></g><g transform="translate(27.730835, 22.199629)"><g><path d="M 6.703125 0.21875 C 5.578125 0.21875 4.585938 -0.0078125 3.734375 -0.46875 C 2.878906 -0.9375 2.210938 -1.617188 1.734375 -2.515625 C 1.265625 -3.410156 1.03125 -4.492188 1.03125 -5.765625 C 1.03125 -7.035156 1.265625 -8.117188 1.734375 -9.015625 C 2.210938 -9.921875 2.878906 -10.601562 3.734375 -11.0625 C 4.585938 -11.53125 5.578125 -11.765625 6.703125 -11.765625 C 7.835938 -11.765625 8.832031 -11.53125 9.6875 -11.0625 C 10.539062 -10.601562 11.203125 -9.921875 11.671875 -9.015625 C 12.148438 -8.117188 12.390625 -7.035156 12.390625 -5.765625 C 12.390625 -4.492188 12.148438 -3.410156 11.671875 -2.515625 C 11.203125 -1.617188 10.539062 -0.9375 9.6875 -0.46875 C 8.832031 -0.0078125 7.835938 0.21875 6.703125 0.21875 Z M 6.703125 -2.234375 C 8.503906 -2.234375 9.40625 -3.410156 9.40625 -5.765625 C 9.40625 -6.984375 9.171875 -7.878906 8.703125 -8.453125 C 8.242188 -9.023438 7.578125 -9.3125 6.703125 -9.3125 C 4.910156 -9.3125 4.015625 -8.128906 4.015625 -5.765625 C 4.015625 -3.410156 4.910156 -2.234375 6.703125 -2.234375 Z M 6.703125 -2.234375 "/></g></g><g transform="translate(41.151031, 22.199629)"><g><path d="M 7.96875 -2.75 L 8.71875 -0.609375 C 8.40625 -0.347656 8.007812 -0.144531 7.53125 0 C 7.0625 0.144531 6.523438 0.21875 5.921875 0.21875 C 4.671875 0.21875 3.722656 -0.117188 3.078125 -0.796875 C 2.429688 -1.484375 2.109375 -2.472656 2.109375 -3.765625 L 2.109375 -9.25 L 0.34375 -9.25 L 0.34375 -11.5625 L 2.109375 -11.5625 L 2.109375 -13.8125 L 5 -14.28125 L 5 -11.5625 L 8.28125 -11.5625 L 8.28125 -9.25 L 5 -9.25 L 5 -3.984375 C 5 -3.410156 5.117188 -2.988281 5.359375 -2.71875 C 5.597656 -2.457031 5.941406 -2.328125 6.390625 -2.328125 C 6.910156 -2.328125 7.363281 -2.46875 7.75 -2.75 Z M 7.96875 -2.75 "/></g></g><g transform="translate(50.122255, 22.199629)"><g><path d="M 9.6875 0 L 0.609375 0 L 0.609375 -2.390625 L 6.203125 -9.03125 L 6.140625 -9.25 L 0.875 -9.25 L 0.875 -11.5625 L 9.609375 -11.5625 L 9.609375 -9.15625 L 4.015625 -2.515625 L 4.09375 -2.296875 L 9.6875 -2.296875 Z M 9.6875 0 "/></g></g><g transform="translate(60.422936, 22.199629)"><g><path d="M 2.546875 4.90625 C 2.054688 4.90625 1.609375 4.863281 1.203125 4.78125 C 0.804688 4.707031 0.484375 4.609375 0.234375 4.484375 L 0.6875 2.140625 L 0.875 2.078125 C 1.050781 2.160156 1.269531 2.226562 1.53125 2.28125 C 1.789062 2.34375 2.054688 2.375 2.328125 2.375 C 2.796875 2.375 3.179688 2.3125 3.484375 2.1875 C 3.796875 2.070312 4.0625 1.867188 4.28125 1.578125 C 4.5 1.296875 4.691406 0.90625 4.859375 0.40625 L 0.25 -11.546875 L 3.28125 -11.546875 L 6.15625 -3.515625 L 6.40625 -3.515625 L 9.203125 -11.546875 L 12.15625 -11.546875 L 7.515625 0.71875 C 7.140625 1.707031 6.726562 2.503906 6.28125 3.109375 C 5.84375 3.710938 5.320312 4.160156 4.71875 4.453125 C 4.125 4.753906 3.398438 4.90625 2.546875 4.90625 Z M 2.546875 4.90625 "/></g></g></g></g></g><g transform="matrix(1, 0, 0, 1, 121, 7)"><g clip-path="url(#3e27dffdcd)"><g fill="#1034a6" fill-opacity="1"><g transform="translate(1.02954, 23.774577)"><g><path d="M 14.484375 0 L 11.34375 0 L 10.203125 -3.484375 L 4.421875 -3.484375 L 3.296875 0 L 0.234375 0 L 5.4375 -15.09375 L 9.265625 -15.09375 Z M 7.171875 -11.9375 L 5.234375 -5.984375 L 9.390625 -5.984375 L 7.4375 -11.9375 Z M 7.171875 -11.9375 "/></g></g><g transform="translate(15.743044, 23.774577)"><g><path d="M 4.9375 0 L 1.96875 0 L 1.96875 -15.09375 L 4.9375 -15.09375 Z M 4.9375 0 "/></g></g></g></g></g></svg>